<svg xmlns="http://www.w3.org/2000/svg" viewBox="0 0 638.2 638.2"><rect x="33.3" y="33.3" width="571.9" height="571.9" rx="87.3" ry="87.3" style="fill:#c02034"/><path d="M270.7 386.1c6.4-10.1 10-21.7 10.8-34.7h-41.8c-.5 7.4-2.2 13.5-4.9 18.5-2.8 4.9-6.8 8.6-12 11.1-5.2 2.4-11.9 3.6-20 3.6s-16.7-2.1-22.3-6.3c-5.6-4.3-9.7-10.8-12.3-19.5-2.5-8.7-3.7-19.7-3.7-33v-12c0-13.5 1.4-24.6 4.3-33.2 2.8-8.7 7.1-15.1 12.8-19.2 5.7-4.1 12.9-6.2 21.5-6.2 13 0 22.1 2.9 27.5 8.8 5.4 5.8 8.5 14.3 9.3 25.6h41.9c-1.2-13.2-5-24.9-11.2-35.2-6.1-10.3-14.9-18.4-26.1-24.3-11.2-6-25-9-41.4-9s-30.7 3.8-42.8 11.3c-12.1 7.6-21.5 18.3-28.3 32.2-6.7 13.9-10 30.4-10 49.4v11.7c0 19 3.2 35.4 9.7 49.3 6.5 13.9 15.8 24.6 27.9 32.2 12.1 7.5 26.5 11.2 43.2 11.2s29.7-2.9 41.1-8.6c11.5-5.7 20.4-13.6 26.8-23.7Zm201.2 29.7h41.9V223.9h-41.9v191.9Zm-160.2.1h42v-77.6h76.2V305h-76.2v-47.5h85.4V224H311.7v191.9Z" style="fill:#fff;fill-rule:evenodd"/></svg>